<svg width="321" height="157" viewBox="0 0 321 157" fill="none" xmlns="http://www.w3.org/2000/svg">
<path d="M88.2835 22.5252C83.304 25.3798 77.707 16.4526 77.8885 16.4576C78.07 16.4627 86.5846 14.7902 88.2835 22.5252Z" stroke="#B3BE9D" stroke-opacity="0.9" stroke-width="0.514706"/>
<path d="M82.3369 18.816L88.2408 22.5261" stroke="#B3BE9D" stroke-opacity="0.9" stroke-width="0.514706"/>
<path d="M86.9719 15.5815C84.7773 8.37955 93.888 4.85509 93.864 5.0765C93.8399 5.2979 94.5314 16.4042 86.9719 15.5815Z" stroke="#B3BE9D" stroke-opacity="0.9" stroke-width="0.514706"/>
<path d="M91.1419 9.66174L86.9757 15.5287" stroke="#B3BE9D" stroke-opacity="0.9" stroke-width="0.514706"/>
<path d="M80.2341 33.745C73.2358 35.48 70.6117 25.6496 70.8196 25.6922C71.0276 25.7349 81.6082 25.8829 80.2341 33.745Z" stroke="#B3BE9D" stroke-opacity="0.9" stroke-width="0.514706"/>
<path d="M74.9514 28.9071L80.1843 33.737" stroke="#B3BE9D" stroke-opacity="0.9" stroke-width="0.514706"/>
<path d="M82.4508 31.4931C86.6862 26.0798 95.7586 32.2799 95.5655 32.3668C95.3724 32.4537 86.9901 38.4621 82.4508 31.4931Z" stroke="#B3BE9D" stroke-opacity="0.9" stroke-width="0.514706"/>
<path d="M92.3162 31.923L84.7749 31.1591" stroke="#B3BE9D" stroke-opacity="0.9" stroke-width="0.514706"/>
<path d="M77.1716 107.755C81.3673 104.504 84.5896 108.536 84.4501 108.585C84.3106 108.635 77.5312 112.162 77.1716 107.755Z" stroke="#B3BE9D" stroke-opacity="0.9" stroke-width="0.514706"/>
<path d="M81.3519 108.249L77.2505 107.61" stroke="#B3BE9D" stroke-opacity="0.9" stroke-width="0.514706"/>
<path d="M73.4824 111.667C67.4917 111.384 67.7453 105.921 67.9009 105.977C68.0564 106.034 76.4528 107.878 73.4824 111.667Z" stroke="#B3BE9D" stroke-opacity="0.9" stroke-width="0.514706"/>
<path d="M70.6095 108.037L73.6275 111.38" stroke="#B3BE9D" stroke-opacity="0.9" stroke-width="0.514706"/>
<path d="M81.2966 5.9021C86.8597 13.033 88.9492 18.2815 87.741 23.0974C86.5466 27.858 82.1298 32.1959 74.6602 37.5116" stroke="#B3BE9D" stroke-opacity="0.9" stroke-width="0.514706"/>
<path d="M31.6152 3.25134C26.4281 9.71435 23.5461 15.1944 22.3607 21.3501C21.1888 27.4352 21.6748 34.1805 23.2305 43.1882" stroke="#B3BE9D" stroke-opacity="0.9" stroke-width="0.514706"/>
<ellipse rx="1.24116" ry="3.12314" transform="matrix(-0.995978 -0.0895976 0.0888142 -0.996048 80.7772 102.236)" fill="#B3BE9D" fill-opacity="0.9"/>
<path d="M79.6692 102.136C79.7447 101.289 79.9492 100.54 80.2141 100.016C80.3467 99.7527 80.4914 99.552 80.6371 99.4223C80.7827 99.2928 80.9193 99.242 81.0431 99.2531C81.1669 99.2643 81.2924 99.3386 81.4127 99.4921C81.5332 99.6457 81.6401 99.869 81.7241 100.151C81.8919 100.715 81.9607 101.488 81.8852 102.335C81.8096 103.182 81.6051 103.931 81.3402 104.456C81.2076 104.719 81.0629 104.919 80.9172 105.049C80.7717 105.179 80.635 105.23 80.5112 105.218C80.3874 105.207 80.2619 105.133 80.1416 104.979C80.0211 104.826 79.9143 104.603 79.8302 104.32C79.6624 103.756 79.5936 102.983 79.6692 102.136Z" stroke="#FFFFFE" stroke-opacity="0.39" stroke-width="0.257353"/>
<ellipse rx="1.24116" ry="3.12315" transform="matrix(-0.995978 -0.0895974 0.0888147 -0.996048 81.4704 94.4584)" fill="#B3BE9D" fill-opacity="0.9"/>
<path d="M80.3624 94.3587C80.438 93.5118 80.6425 92.7631 80.9074 92.2382C81.04 91.9753 81.1847 91.7747 81.3304 91.6449C81.4759 91.5154 81.6126 91.4646 81.7364 91.4758C81.8602 91.4869 81.9857 91.5613 82.106 91.7147C82.2265 91.8684 82.3333 92.0917 82.4174 92.374C82.5852 92.9379 82.654 93.7111 82.5785 94.5581C82.5029 95.4051 82.2984 96.1537 82.0335 96.6787C81.9009 96.9415 81.7562 97.1422 81.6105 97.2719C81.4649 97.4014 81.3283 97.4522 81.2045 97.441C81.0807 97.4299 80.9552 97.3555 80.8349 97.2021C80.7144 97.0484 80.6075 96.8252 80.5235 96.5428C80.3557 95.9789 80.2869 95.2057 80.3624 94.3587Z" stroke="#FFFFFE" stroke-opacity="0.39" stroke-width="0.257353"/>
<ellipse rx="1.22426" ry="3.16667" transform="matrix(-0.428307 -0.904013 0.910254 -0.413233 77.5206 99.9831)" fill="#B3BE9D" fill-opacity="0.9"/>
<path d="M77.0514 98.9927C77.8367 98.6362 78.6003 98.4383 79.1972 98.4029C79.4961 98.3852 79.7462 98.4087 79.9341 98.4683C80.1219 98.5279 80.2343 98.6187 80.286 98.7277C80.3376 98.8367 80.3358 98.9793 80.261 99.1582C80.1861 99.3371 80.0429 99.5392 79.836 99.7511C79.4228 100.174 78.7751 100.617 77.9899 100.974C77.2046 101.33 76.4409 101.528 75.844 101.563C75.5451 101.581 75.295 101.558 75.1071 101.498C74.9193 101.438 74.8069 101.348 74.7553 101.239C74.7036 101.13 74.7054 100.987 74.7803 100.808C74.8551 100.629 74.9984 100.427 75.2053 100.215C75.6184 99.792 76.2661 99.3492 77.0514 98.9927Z" stroke="#FFFFFE" stroke-opacity="0.39" stroke-width="0.257353"/>
<ellipse rx="1.22426" ry="3.16667" transform="matrix(-0.428307 -0.904013 0.910255 -0.413233 84.7268 96.7116)" fill="#B3BE9D" fill-opacity="0.9"/>
<path d="M84.2576 95.7212C85.0429 95.3647 85.8065 95.1668 86.4034 95.1314C86.7023 95.1137 86.9524 95.1372 87.1403 95.1968C87.3281 95.2564 87.4405 95.3472 87.4921 95.4562C87.5438 95.5652 87.542 95.7079 87.4672 95.8867C87.3923 96.0656 87.249 96.2677 87.0422 96.4796C86.629 96.9028 85.9813 97.3456 85.196 97.7021C84.4107 98.0586 83.6471 98.2565 83.0502 98.2919C82.7513 98.3096 82.5012 98.2861 82.3133 98.2264C82.1255 98.1668 82.0131 98.076 81.9615 97.967C81.9098 97.858 81.9116 97.7154 81.9864 97.5366C82.0613 97.3576 82.2046 97.1556 82.4114 96.9437C82.8246 96.5205 83.4723 96.0777 84.2576 95.7212Z" stroke="#FFFFFE" stroke-opacity="0.39" stroke-width="0.257353"/>
<ellipse rx="1.23556" ry="3.13774" transform="matrix(-0.822683 -0.569085 0.581375 -0.813205 78.843 101.537)" fill="#B3BE9D" fill-opacity="0.9"/>
<path d="M77.9324 100.907C78.4291 100.212 78.9879 99.6653 79.4852 99.3416C79.7342 99.1796 79.9621 99.0772 80.1547 99.0367C80.347 98.9963 80.4911 99.0196 80.5924 99.0896C80.6936 99.1597 80.7647 99.2852 80.791 99.4769C80.8174 99.6689 80.7965 99.9144 80.7257 100.2C80.5843 100.77 80.2504 101.472 79.7536 102.167C79.2568 102.861 78.6981 103.408 78.2007 103.732C77.9517 103.894 77.7239 103.996 77.5313 104.037C77.3389 104.077 77.1948 104.054 77.0936 103.984C76.9924 103.914 76.9213 103.788 76.8949 103.596C76.8685 103.404 76.8894 103.159 76.9602 102.873C77.1016 102.304 77.4356 101.602 77.9324 100.907Z" stroke="#FFFFFE" stroke-opacity="0.39" stroke-width="0.257353"/>
<ellipse rx="1.23556" ry="3.13774" transform="matrix(-0.822656 -0.569122 0.58142 -0.813174 83.4042 95.1581)" fill="#B3BE9D" fill-opacity="0.9"/>
<path d="M82.4936 94.5282C82.9904 93.8333 83.5492 93.2868 84.0465 92.9632C84.2956 92.8012 84.5234 92.6988 84.716 92.6583C84.9084 92.6179 85.0525 92.6412 85.1537 92.7112C85.2549 92.7813 85.326 92.9068 85.3524 93.0985C85.3787 93.2905 85.3578 93.536 85.287 93.8214C85.1456 94.3912 84.8116 95.0932 84.3148 95.7881C83.818 96.4829 83.2592 97.0295 82.7618 97.3531C82.5128 97.5151 82.285 97.6175 82.0924 97.658C81.9 97.6984 81.7559 97.675 81.6547 97.605C81.5534 97.535 81.4824 97.4095 81.456 97.2177C81.4297 97.0257 81.4505 96.7802 81.5214 96.4949C81.6628 95.9251 81.9968 95.223 82.4936 94.5282Z" stroke="#FFFFFE" stroke-opacity="0.39" stroke-width="0.257353"/>
<ellipse rx="1.22425" ry="3.16667" transform="matrix(-0.581423 0.813179 -0.822661 -0.569125 84.3801 100.6)" fill="#B3BE9D" fill-opacity="0.9"/>
<path d="M83.7431 101.491C83.0333 101 82.4743 100.449 82.1426 99.9586C81.9765 99.7131 81.8713 99.4887 81.8293 99.2992C81.7872 99.1099 81.8107 98.9692 81.8808 98.8712C81.9509 98.7731 82.0776 98.7038 82.2729 98.6787C82.4684 98.6536 82.7187 98.6751 83.0097 98.7459C83.5908 98.8872 84.3073 99.2183 85.0171 99.7093C85.7268 100.2 86.2858 100.752 86.6175 101.242C86.7836 101.487 86.8888 101.712 86.9309 101.901C86.9729 102.09 86.9494 102.231 86.8793 102.329C86.8092 102.427 86.6825 102.497 86.4872 102.522C86.2917 102.547 86.0414 102.525 85.7504 102.454C85.1693 102.313 84.4528 101.982 83.7431 101.491Z" stroke="#FFFFFE" stroke-opacity="0.39" stroke-width="0.257353"/>
<ellipse rx="1.22425" ry="3.16667" transform="matrix(-0.581425 0.813178 -0.822662 -0.569124 77.8673 96.0947)" fill="#B3BE9D" fill-opacity="0.9"/>
<path d="M77.2303 96.9856C76.5206 96.4946 75.9616 95.9433 75.6298 95.4531C75.4637 95.2076 75.3585 94.9832 75.3165 94.7938C75.2745 94.6044 75.298 94.4637 75.3681 94.3657C75.4382 94.2676 75.5648 94.1983 75.7602 94.1732C75.9557 94.1481 76.2059 94.1696 76.4969 94.2404C77.0781 94.3817 77.7946 94.7128 78.5043 95.2038C79.214 95.6948 79.773 96.2461 80.1047 96.7363C80.2709 96.9818 80.3761 97.2061 80.4181 97.3956C80.4601 97.585 80.4366 97.7256 80.3665 97.8237C80.2964 97.9217 80.1698 97.991 79.9744 98.0161C79.7789 98.0413 79.5287 98.0198 79.2377 97.949C78.6565 97.8077 77.94 97.4766 77.2303 96.9856Z" stroke="#FFFFFE" stroke-opacity="0.39" stroke-width="0.257353"/>
<ellipse rx="1.23555" ry="3.13772" transform="matrix(-0.910254 0.413235 -0.428305 -0.904014 82.8033 101.893)" fill="#B3BE9D" fill-opacity="0.9"/>
<path d="M81.7958 102.351C81.4298 101.578 81.2254 100.828 81.187 100.242C81.1677 99.9483 81.1906 99.703 81.2505 99.5187C81.3104 99.3347 81.4025 99.2239 81.5145 99.1731C81.6265 99.1222 81.7725 99.1249 81.9546 99.1991C82.137 99.2733 82.3431 99.4147 82.5595 99.6186C82.9917 100.026 83.4449 100.663 83.8109 101.436C84.1768 102.208 84.3813 102.959 84.4197 103.545C84.4389 103.838 84.416 104.084 84.3561 104.268C84.2963 104.452 84.2041 104.563 84.0921 104.613C83.9801 104.664 83.8342 104.662 83.652 104.587C83.4696 104.513 83.2635 104.372 83.0471 104.168C82.6149 103.761 82.1618 103.123 81.7958 102.351Z" stroke="#FFFFFE" stroke-opacity="0.39" stroke-width="0.257353"/>
<ellipse rx="1.23555" ry="3.13772" transform="matrix(-0.910254 0.413234 -0.428305 -0.904014 79.4438 94.8017)" fill="#B3BE9D" fill-opacity="0.9"/>
<path d="M78.4362 95.2591C78.0703 94.4866 77.8658 93.7362 77.8274 93.1502C77.8082 92.8567 77.8311 92.6114 77.891 92.4272C77.9508 92.2432 78.043 92.1323 78.155 92.0815C78.267 92.0307 78.4129 92.0334 78.5951 92.1075C78.7775 92.1818 78.9836 92.3231 79.2 92.527C79.6322 92.9343 80.0853 93.5718 80.4513 94.3443C80.8173 95.1168 81.0218 95.8673 81.0601 96.4533C81.0794 96.7467 81.0565 96.992 80.9966 97.1763C80.9367 97.3603 80.8446 97.4711 80.7326 97.5219C80.6206 97.5728 80.4746 97.57 80.2925 97.4959C80.1101 97.4217 79.904 97.2803 79.6876 97.0764C79.2554 96.6692 78.8022 96.0316 78.4362 95.2591Z" stroke="#FFFFFE" stroke-opacity="0.39" stroke-width="0.257353"/>
<ellipse rx="1.21857" ry="3.29137" transform="matrix(-0.0888146 0.996048 -0.995978 -0.0895973 85.1013 98.6641)" fill="#B3BE9D" fill-opacity="0.9"/>
<path d="M85.0045 99.7497C84.1105 99.6692 83.3187 99.4625 82.762 99.1976C82.4833 99.0649 82.27 98.9207 82.1317 98.776C81.9932 98.631 81.9409 98.4978 81.9514 98.3807C81.9618 98.2636 82.0368 98.1419 82.1988 98.024C82.3604 97.9062 82.5958 97.8023 82.8937 97.7215C83.4883 97.5602 84.3041 97.4981 85.1981 97.5785C86.0922 97.6589 86.884 97.8656 87.4406 98.1306C87.7194 98.2632 87.9327 98.4075 88.071 98.5522C88.2095 98.6972 88.2618 98.8304 88.2513 98.9475C88.2409 99.0646 88.1658 99.1863 88.0039 99.3042C87.8423 99.422 87.6069 99.5259 87.309 99.6067C86.7144 99.768 85.8986 99.8301 85.0045 99.7497Z" stroke="#FFFFFE" stroke-opacity="0.39" stroke-width="0.257353"/>
<ellipse rx="1.21857" ry="3.29137" transform="matrix(-0.0888146 0.996048 -0.995978 -0.0895974 76.9058 97.9275)" fill="#B3BE9D" fill-opacity="0.9"/>
<path d="M76.809 99.0131C75.9149 98.9327 75.1231 98.726 74.5665 98.4611C74.2877 98.3284 74.0744 98.1841 73.9362 98.0394C73.7977 97.8944 73.7454 97.7613 73.7558 97.6442C73.7663 97.527 73.8413 97.4054 74.0032 97.2874C74.1649 97.1696 74.4003 97.0658 74.6981 96.9849C75.2927 96.8236 76.1085 96.7615 77.0026 96.8419C77.8967 96.9224 78.6885 97.1291 79.2451 97.394C79.5239 97.5267 79.7372 97.6709 79.8754 97.8156C80.0139 97.9606 80.0662 98.0938 80.0558 98.2109C80.0453 98.328 79.9703 98.4497 79.8084 98.5677C79.6467 98.6854 79.4113 98.7893 79.1135 98.8701C78.5188 99.0314 77.7031 99.0935 76.809 99.0131Z" stroke="#FFFFFE" stroke-opacity="0.39" stroke-width="0.257353"/>
<path d="M97.8109 80.8298L97.812 80.8253L104.698 52.5754C105.584 48.9393 103.255 45.2993 99.5818 44.5809L83.5007 41.4355C81.7806 41.0991 80.102 40.5777 78.494 39.8805L60.7697 32.195C56.8935 30.5142 52.4721 30.636 48.6557 32.4807C45.3574 34.0749 41.2786 36.0088 37.6319 37.6294C34.0368 39.227 30.7228 40.5846 29.0305 40.949C26.0108 41.5994 15.7459 43.4212 8.34479 44.7182C4.59773 45.3749 2.18701 49.062 3.09068 52.7557L12.9712 93.1413C15.4057 103.092 21.8108 111.611 30.694 116.713L44.7603 124.792C50.8435 128.286 58.3376 128.229 64.3675 124.644L77.5319 116.817C86.2221 111.65 92.4536 103.188 94.8094 93.3565L97.8109 80.8298Z" stroke="#B3BE9D" stroke-opacity="0.9" stroke-width="2.31618"/>
<g style="mix-blend-mode:darken">
<g style="mix-blend-mode:overlay">
<path d="M12.7416 51.8239L30.1719 49.2343C31.6212 49.019 33.0325 48.5984 34.3633 47.9854L52.0436 39.8408C52.8961 39.448 53.8687 40.0708 53.8687 41.0095V116.821C53.8687 117.8 52.8181 118.421 51.9605 117.948L36.5372 109.441L35.4216 108.778C26.7632 103.628 20.4608 95.298 17.86 85.5654L15.6309 77.2236L10.6092 54.9352C10.2803 53.4754 11.2615 52.0438 12.7416 51.8239Z" fill="#B3BE9D" fill-opacity="0.9"/>
<path d="M12.7416 51.8239L30.1719 49.2343C31.6212 49.019 33.0325 48.5984 34.3633 47.9854L52.0436 39.8408C52.8961 39.448 53.8687 40.0708 53.8687 41.0095V116.821C53.8687 117.8 52.8181 118.421 51.9605 117.948L36.5372 109.441L35.4216 108.778C26.7632 103.628 20.4608 95.298 17.86 85.5654L15.6309 77.2236L10.6092 54.9352C10.2803 53.4754 11.2615 52.0438 12.7416 51.8239Z" stroke="#B3BE9D" stroke-opacity="0.9" stroke-width="0.257353"/>
</g>
</g>
<g filter="url(#filter0_d)">
<path d="M66.5518 55.936V55.186H65.8018V55.936H66.5518ZM81.7438 55.936H82.4938V55.186H81.7438V55.936ZM81.7438 58.528L81.963 59.2453L82.4938 59.0831V58.528H81.7438ZM76.5598 60.112L76.3407 59.3947L75.9318 59.5197L75.831 59.9351L76.5598 60.112ZM66.9118 99.856L67.0428 100.594L67.5251 100.509L67.6406 100.033L66.9118 99.856ZM62.4478 100.648L61.7331 100.875L61.9323 101.501L62.5788 101.386L62.4478 100.648ZM52.7998 70.336L53.5145 70.1085L52.7637 67.7497L52.0791 70.1286L52.7998 70.336ZM44.3038 99.856L44.4369 100.594L44.8956 100.511L45.0246 100.063L44.3038 99.856ZM39.9118 100.648L39.1881 100.845L39.3684 101.508L40.0449 101.386L39.9118 100.648ZM28.8958 60.112L29.6196 59.9153L29.5093 59.5097L29.1058 59.392L28.8958 60.112ZM23.7118 58.6H22.9618V59.1625L23.5018 59.32L23.7118 58.6ZM23.7118 55.936V55.186H22.9618V55.936H23.7118ZM40.8478 55.936H41.5978V55.186H40.8478V55.936ZM40.8478 58.6L41.0815 59.3127L41.5978 59.1434V58.6H40.8478ZM36.4558 60.04L36.2221 59.3273L35.5649 59.5428L35.7266 60.2153L36.4558 60.04ZM43.2238 88.192L42.4946 88.3673L43.9492 88.3827L43.2238 88.192ZM50.5678 60.256L50.4275 59.5192L49.9627 59.6078L49.8425 60.0653L50.5678 60.256ZM56.6158 59.104L57.3359 58.8943L57.1452 58.2397L56.4755 58.3672L56.6158 59.104ZM65.2558 88.768L64.5357 88.9777L65.9877 88.9317L65.2558 88.768ZM71.6638 60.112L72.3957 60.2757L72.5487 59.5916L71.8765 59.3928L71.6638 60.112ZM66.5518 58.6H65.8018V59.1603L66.3391 59.3192L66.5518 58.6ZM66.5518 56.686H81.7438V55.186H66.5518V56.686ZM80.9938 55.936V58.528H82.4938V55.936H80.9938ZM81.5247 57.8107L76.3407 59.3947L76.779 60.8293L81.963 59.2453L81.5247 57.8107ZM75.831 59.9351L66.183 99.6791L67.6406 100.033L77.2886 60.2889L75.831 59.9351ZM66.7808 99.1175L62.3168 99.9095L62.5788 101.386L67.0428 100.594L66.7808 99.1175ZM63.1625 100.421L53.5145 70.1085L52.0851 70.5635L61.7331 100.875L63.1625 100.421ZM52.0791 70.1286L43.5831 99.6486L45.0246 100.063L53.5206 70.5434L52.0791 70.1286ZM44.1707 99.1179L39.7787 99.9099L40.0449 101.386L44.4369 100.594L44.1707 99.1179ZM40.6356 100.451L29.6196 59.9153L28.1721 60.3087L39.1881 100.845L40.6356 100.451ZM29.1058 59.392L23.9218 57.88L23.5018 59.32L28.6858 60.832L29.1058 59.392ZM24.4618 58.6V55.936H22.9618V58.6H24.4618ZM23.7118 56.686H40.8478V55.186H23.7118V56.686ZM40.0978 55.936V58.6H41.5978V55.936H40.0978ZM40.6142 57.8873L36.2221 59.3273L36.6895 60.7527L41.0815 59.3127L40.6142 57.8873ZM35.7266 60.2153L42.4946 88.3673L43.953 88.0167L37.185 59.8647L35.7266 60.2153ZM43.9492 88.3827L51.2932 60.4467L49.8425 60.0653L42.4985 88.0013L43.9492 88.3827ZM50.7081 60.9928L56.7561 59.8408L56.4755 58.3672L50.4275 59.5192L50.7081 60.9928ZM55.8957 59.3137L64.5357 88.9777L65.9759 88.5583L57.3359 58.8943L55.8957 59.3137ZM65.9877 88.9317L72.3957 60.2757L70.9319 59.9483L64.5239 88.6043L65.9877 88.9317ZM71.8765 59.3928L66.7645 57.8808L66.3391 59.3192L71.4511 60.8312L71.8765 59.3928ZM67.3018 58.6V55.936H65.8018V58.6H67.3018Z" fill="#A9B493"/>
</g>
<path d="M22.0073 31.2093C15.1116 35.4002 7.61157 25.3851 7.86064 25.3648C8.10971 25.3444 19.8345 22.0717 22.0073 31.2093Z" stroke="#B3BE9D" stroke-opacity="0.9" stroke-width="0.514706"/>
<path d="M13.9194 27.5765L21.9486 31.2164" stroke="#B3BE9D" stroke-opacity="0.9" stroke-width="0.514706"/>
<path d="M23.5556 15.4085C16.1082 18.3053 10.7233 7.88999 10.9679 7.90728C11.2125 7.92458 23.1576 6.58589 23.5556 15.4085Z" stroke="#B3BE9D" stroke-opacity="0.9" stroke-width="0.514706"/>
<path d="M16.5449 10.6915L23.8237 15.6782" stroke="#B3BE9D" stroke-opacity="0.9" stroke-width="0.514706"/>
<path d="M22.9679 38.5528C21.2901 32.2556 31.7524 27.9326 31.7026 28.1373C31.6528 28.3421 31.2569 38.3814 22.9679 38.5528Z" stroke="#B3BE9D" stroke-opacity="0.9" stroke-width="0.514706"/>
<path d="M23.0781 38.4995C24.7611 35.5261 29.5062 30.7951 28.4777 32.0278" stroke="#B3BE9D" stroke-opacity="0.9" stroke-width="0.514706"/>
<path d="M74.7052 125.296C76.2397 131.64 65.6829 135.656 65.7373 135.453C65.7918 135.249 66.4151 125.225 74.7052 125.296Z" stroke="#B3BE9D" stroke-opacity="0.9" stroke-width="0.514706"/>
<path d="M74.5938 125.346C72.844 128.269 67.9932 132.86 69.0493 131.657" stroke="#B3BE9D" stroke-opacity="0.9" stroke-width="0.514706"/>
<path d="M83.6717 140.256C89.3019 141.803 87.283 154.239 87.1528 154.086C87.0226 153.934 79.6024 148.46 83.6717 140.256Z" stroke="#B3BE9D" stroke-opacity="0.9" stroke-width="0.514706"/>
<path d="M83.6563 140.391C85.0608 143.546 86.2481 150.589 85.8334 148.957" stroke="#B3BE9D" stroke-opacity="0.9" stroke-width="0.514706"/>
<path d="M78.2119 133.734C79.7192 127.382 90.6121 129.995 90.4745 130.139C90.3369 130.283 85.3273 138.566 78.2119 133.734Z" stroke="#B3BE9D" stroke-opacity="0.9" stroke-width="0.514706"/>
<path d="M78.3303 133.755C81.143 132.242 87.373 131.076 85.9262 131.504" stroke="#B3BE9D" stroke-opacity="0.9" stroke-width="0.514706"/>
<path d="M89.7733 143.359C89.4258 136.792 100.485 135.339 100.395 135.525C100.305 135.711 97.8718 145.373 89.7733 143.359Z" stroke="#B3BE9D" stroke-opacity="0.9" stroke-width="0.514706"/>
<path d="M89.8915 143.336C92.1352 140.886 97.7163 137.533 96.4643 138.461" stroke="#B3BE9D" stroke-opacity="0.9" stroke-width="0.514706"/>
<path d="M26.0134 131.012C31.2279 128.146 36.621 139.208 36.4351 139.184C36.2493 139.161 27.4567 140.284 26.0134 131.012Z" stroke="#B3BE9D" stroke-opacity="0.9" stroke-width="0.514706"/>
<path d="M26.0771 131.127C28.9257 132.551 33.7809 137.135 32.5483 136.174" stroke="#B3BE9D" stroke-opacity="0.9" stroke-width="0.514706"/>
<path d="M15.1952 137.097C17.6708 143.046 7.88266 149.071 7.90541 148.86C7.92817 148.649 7.01871 138.653 15.1952 137.097Z" stroke="#B3BE9D" stroke-opacity="0.9" stroke-width="0.514706"/>
<path d="M15.0931 137.169C13.8138 140.391 9.73344 145.864 10.591 144.473" stroke="#B3BE9D" stroke-opacity="0.9" stroke-width="0.514706"/>
<path d="M29.9398 124.698C25.9111 128.715 18.0336 120.627 18.2106 120.594C18.3875 120.561 26.1618 117.024 29.9398 124.698Z" stroke="#B3BE9D" stroke-opacity="0.9" stroke-width="0.514706"/>
<path d="M29.8502 124.615C26.8586 124.2 21.1886 121.61 22.5745 122.091" stroke="#B3BE9D" stroke-opacity="0.9" stroke-width="0.514706"/>
<path d="M26.0361 11.4777C28.6009 4.78875 41.2455 7.04168 41.0643 7.19765C40.8831 7.35361 33.9165 16.2077 26.0361 11.4777Z" stroke="#B3BE9D" stroke-opacity="0.9" stroke-width="0.514706"/>
<path d="M26.1774 11.4949C29.7069 9.79584 37.2601 8.31154 35.4869 8.82088" stroke="#B3BE9D" stroke-opacity="0.9" stroke-width="0.514706"/>
<path d="M80.1317 103.039C75.1109 111.432 71.0532 114.98 62.0331 119.648" stroke="#B3BE9D" stroke-opacity="0.9" stroke-width="0.514706"/>
<path d="M33.4759 118.631C25.747 134.206 19.6349 138.07 5.54528 137.016" stroke="#B3BE9D" stroke-opacity="0.9" stroke-width="0.514706"/>
<path d="M96.1245 145.608C80.9257 140.954 76.1179 135.184 73.5325 119.417" stroke="#B3BE9D" stroke-opacity="0.9" stroke-width="0.514706"/>
<path d="M110.984 107.012L114.559 119.398L118.613 118.672L120.699 110.551L123.125 119.387L127.027 118.672L130.953 106.895L132.5 106.262L132.793 104.422H126.008L125.762 106.297L127.719 106.93L125.926 113.117L123.512 104.469L119.539 104.938L117.488 113.305L115.684 106.965L117.477 106.332L117.898 104.422H109.051L108.922 106.238L110.984 107.012ZM140.574 119L140.75 117.266L138.535 116.188L138.969 114.875H143.562L144.008 116.188L142.062 117.406L141.875 119.023H150.254L150.395 117.301L148.777 116.211L144.207 104.117L140.141 104.879L135.594 116.176L133.824 117.383L133.602 119H140.574ZM141.242 108.066L142.73 112.426H139.789L141.242 108.066ZM159.781 117.184L157.988 116.551V113.504H159.793L160.062 114.453C160.383 115.578 160.777 116.496 161.246 117.207C161.715 117.91 162.293 118.438 162.98 118.789C163.676 119.133 164.516 119.305 165.5 119.305C165.883 119.305 166.25 119.273 166.602 119.211C166.953 119.156 167.23 119.078 167.434 118.977L167.797 117.441L167.34 117.137C166.715 116.723 166.137 116.281 165.605 115.812C165.082 115.336 164.582 114.758 164.105 114.078L162.898 112.309V112.297C163.703 111.969 164.359 111.477 164.867 110.82C165.383 110.156 165.641 109.336 165.641 108.359C165.641 107.367 165.379 106.574 164.855 105.98C164.332 105.379 163.559 104.949 162.535 104.691C161.52 104.426 160.227 104.293 158.656 104.293C155.906 104.293 153.535 104.496 151.543 104.902L151.402 106.777L153.652 107.328V116.457L151.426 117.383L151.203 119H159.641L159.781 117.184ZM157.988 106.414C158.074 106.406 158.203 106.402 158.375 106.402C158.93 106.402 159.418 106.52 159.84 106.754C160.27 106.98 160.598 107.289 160.824 107.68C161.059 108.062 161.176 108.477 161.176 108.922C161.176 109.516 161.109 110.008 160.977 110.398C160.844 110.789 160.641 111.125 160.367 111.406H157.988V106.414ZM173.68 119.27C174.484 119.27 175.344 119.113 176.258 118.801C177.18 118.488 177.969 117.969 178.625 117.242C179.289 116.516 179.621 115.574 179.621 114.418C179.621 113.59 179.383 112.875 178.906 112.273C178.438 111.664 177.879 111.168 177.23 110.785C176.582 110.395 175.754 109.965 174.746 109.496C174.098 109.191 173.598 108.945 173.246 108.758C172.895 108.57 172.602 108.363 172.367 108.137C172.141 107.902 172.027 107.656 172.027 107.398C172.027 106.977 172.164 106.645 172.438 106.402C172.711 106.16 173.102 106.039 173.609 106.039C174.047 106.039 174.488 106.137 174.934 106.332C175.379 106.52 175.703 106.77 175.906 107.082L176.363 108.992L178.391 109.344C178.422 108.93 178.484 108.148 178.578 107C178.672 105.852 178.719 105.219 178.719 105.102C178.523 104.938 178.172 104.785 177.664 104.645C177.156 104.496 176.602 104.379 176 104.293C175.406 104.207 174.891 104.164 174.453 104.164C173.383 104.164 172.414 104.363 171.547 104.762C170.68 105.152 169.996 105.711 169.496 106.438C168.996 107.164 168.746 108.004 168.746 108.957C168.746 109.809 168.969 110.535 169.414 111.137C169.859 111.73 170.387 112.211 170.996 112.578C171.605 112.938 172.387 113.328 173.34 113.75C173.957 114.023 174.434 114.254 174.77 114.441C175.113 114.621 175.398 114.828 175.625 115.062C175.852 115.289 175.965 115.543 175.965 115.824C175.965 116.051 175.875 116.27 175.695 116.48C175.523 116.684 175.289 116.852 174.992 116.984C174.703 117.109 174.391 117.172 174.055 117.172C173.555 117.172 173.07 117.105 172.602 116.973C172.141 116.832 171.801 116.641 171.582 116.398L171.09 114.207L169.016 113.867L168.617 118.227C168.93 118.531 169.539 118.781 170.445 118.977C171.352 119.172 172.43 119.27 173.68 119.27ZM180.582 119H192.277L192.992 113.914L191.234 113.645L189.043 116.938L184.848 116.586L192.875 106.238L192.969 104.422H180.887L180.758 109.109L183.102 109.484L183.84 106.473H187.824L180.43 116.234L180.582 119ZM200.785 119L200.961 117.266L198.746 116.188L199.18 114.875H203.773L204.219 116.188L202.273 117.406L202.086 119.023H210.465L210.605 117.301L208.988 116.211L204.418 104.117L200.352 104.879L195.805 116.176L194.035 117.383L193.812 119H200.785ZM201.453 108.066L202.941 112.426H200L201.453 108.066ZM213.477 107.012L217.051 119.398L221.105 118.672L223.191 110.551L225.617 119.387L229.52 118.672L233.445 106.895L234.992 106.262L235.285 104.422H228.5L228.254 106.297L230.211 106.93L228.418 113.117L226.004 104.469L222.031 104.938L219.98 113.305L218.176 106.965L219.969 106.332L220.391 104.422H211.543L211.414 106.238L213.477 107.012ZM238.297 107.047V116.41L236.234 117.336L236.117 119H244.52L244.672 117.125L242.562 116.387V107.082L244.66 106.297L244.848 104.422H236.328L236.094 106.18L238.297 107.047ZM252.629 119L252.805 117.266L250.59 116.188L251.023 114.875H255.617L256.062 116.188L254.117 117.406L253.93 119.023H262.309L262.449 117.301L260.832 116.211L256.262 104.117L252.195 104.879L247.648 116.176L245.879 117.383L245.656 119H252.629ZM253.297 108.066L254.785 112.426H251.844L253.297 108.066ZM265.379 107.246V116.457L263.375 117.383L263.258 119H270.066L270.219 117.266L268.109 116.527V111.746L274.004 119.34L277.438 118.824V106.965L279.055 106.18L279.348 104.422H272.938L272.656 106.18L274.859 107.047V112.988L268.273 104.422H263.469L263.305 106.262L265.379 107.246ZM282.746 107.363V116.176L280.379 117.383L280.191 119H289.156L289.297 117.266L287.012 116.188V107.281L288.699 106.414L288.969 104.422H280.531L280.156 106.18L282.746 107.363ZM289.062 114.945C289.758 116.07 290.402 116.945 290.996 117.57C291.598 118.188 292.195 118.625 292.789 118.883C293.391 119.133 294.066 119.258 294.816 119.258C295.457 119.258 296.215 119.164 297.09 118.977L297.465 117.441L297.172 117.289C296.516 116.945 295.875 116.496 295.25 115.941C294.625 115.379 293.898 114.602 293.07 113.609L290.984 111.148L293.949 107.281L296.539 106.18L296.891 104.422H290.82L290.504 106.32L290.352 107.246L288.184 110.211C287.879 110.617 287.625 110.949 287.422 111.207L287.375 112.227L289.062 114.945ZM305.246 119L305.422 117.266L303.207 116.188L303.641 114.875H308.234L308.68 116.188L306.734 117.406L306.547 119.023H314.926L315.066 117.301L313.449 116.211L308.879 104.117L304.812 104.879L300.266 116.176L298.496 117.383L298.273 119H305.246ZM305.914 108.066L307.402 112.426H304.461L305.914 108.066Z" fill="#B3BE9D" fill-opacity="0.9"/>
<path d="M168.534 53.192C168.822 53.624 168.966 54.032 168.966 54.416C168.966 54.928 168.75 55.36 168.318 55.712C167.902 56.048 167.414 56.216 166.854 56.216C166.47 56.216 166.11 56.128 165.774 55.952C165.438 55.776 165.15 55.512 164.91 55.16L161.79 50.6C161.566 50.28 161.326 50.048 161.07 49.904C160.83 49.744 160.542 49.664 160.206 49.664H158.646V53.96C158.646 54.632 158.454 55.168 158.07 55.568C157.686 55.952 157.158 56.144 156.486 56.144C155.814 56.144 155.278 55.952 154.878 55.568C154.494 55.168 154.302 54.632 154.302 53.96V41.12C154.302 40.464 154.478 39.96 154.83 39.608C155.182 39.256 155.686 39.08 156.342 39.08H162.366C164.414 39.08 165.95 39.528 166.974 40.424C168.014 41.304 168.534 42.584 168.534 44.264C168.534 45.544 168.182 46.632 167.478 47.528C166.774 48.408 165.782 49 164.502 49.304C165.03 49.384 165.486 49.56 165.87 49.832C166.27 50.104 166.662 50.512 167.046 51.056L168.534 53.192ZM161.67 46.352C162.646 46.352 163.342 46.2 163.758 45.896C164.19 45.592 164.406 45.096 164.406 44.408C164.406 43.704 164.19 43.2 163.758 42.896C163.342 42.576 162.646 42.416 161.67 42.416H158.598V46.352H161.67ZM176.934 56.192C175.638 56.192 174.494 55.944 173.502 55.448C172.526 54.936 171.766 54.216 171.222 53.288C170.694 52.36 170.43 51.272 170.43 50.024C170.43 48.776 170.694 47.696 171.222 46.784C171.766 45.856 172.526 45.144 173.502 44.648C174.478 44.152 175.622 43.904 176.934 43.904C178.246 43.904 179.39 44.152 180.366 44.648C181.342 45.144 182.094 45.856 182.622 46.784C183.166 47.696 183.438 48.776 183.438 50.024C183.438 51.272 183.166 52.36 182.622 53.288C182.094 54.216 181.342 54.936 180.366 55.448C179.39 55.944 178.246 56.192 176.934 56.192ZM176.934 53C178.454 53 179.214 52.008 179.214 50.024C179.214 48.04 178.454 47.048 176.934 47.048C175.414 47.048 174.654 48.04 174.654 50.024C174.654 52.008 175.414 53 176.934 53ZM195.693 38.96C196.333 38.96 196.853 39.144 197.253 39.512C197.669 39.864 197.877 40.32 197.877 40.88V54.176C197.877 54.784 197.685 55.264 197.301 55.616C196.917 55.968 196.405 56.144 195.765 56.144C195.173 56.144 194.685 55.992 194.301 55.688C193.933 55.368 193.725 54.936 193.677 54.392C193.341 54.952 192.845 55.392 192.189 55.712C191.549 56.032 190.837 56.192 190.053 56.192C189.045 56.192 188.141 55.936 187.341 55.424C186.557 54.896 185.941 54.16 185.493 53.216C185.045 52.272 184.821 51.192 184.821 49.976C184.821 48.76 185.037 47.696 185.469 46.784C185.917 45.856 186.533 45.144 187.317 44.648C188.117 44.152 189.029 43.904 190.053 43.904C190.805 43.904 191.493 44.056 192.117 44.36C192.757 44.664 193.253 45.072 193.605 45.584V40.808C193.605 40.248 193.789 39.8 194.157 39.464C194.541 39.128 195.053 38.96 195.693 38.96ZM191.349 53C192.101 53 192.677 52.744 193.077 52.232C193.477 51.72 193.677 50.984 193.677 50.024C193.677 49.08 193.477 48.36 193.077 47.864C192.677 47.352 192.101 47.096 191.349 47.096C190.613 47.096 190.045 47.344 189.645 47.84C189.245 48.336 189.045 49.048 189.045 49.976C189.045 50.936 189.245 51.68 189.645 52.208C190.061 52.736 190.629 53 191.349 53ZM209.325 52.856C210.605 52.856 211.245 53.376 211.245 54.416C211.245 55.472 210.605 56 209.325 56H201.765C201.205 56 200.749 55.824 200.397 55.472C200.045 55.12 199.869 54.696 199.869 54.2C199.869 53.672 200.069 53.184 200.469 52.736L205.509 47.336H201.645C200.365 47.336 199.725 46.808 199.725 45.752C199.725 44.712 200.365 44.192 201.645 44.192H208.917C209.477 44.192 209.933 44.368 210.285 44.72C210.637 45.072 210.813 45.496 210.813 45.992C210.813 46.504 210.613 46.984 210.213 47.432L205.149 52.856H209.325ZM214.954 56.144C214.346 56.144 213.834 55.984 213.418 55.664C213.018 55.328 212.818 54.832 212.818 54.176V45.92C212.818 45.264 213.018 44.776 213.418 44.456C213.834 44.12 214.346 43.952 214.954 43.952C215.562 43.952 216.066 44.12 216.466 44.456C216.882 44.776 217.09 45.264 217.09 45.92V54.176C217.09 54.832 216.882 55.328 216.466 55.664C216.066 55.984 215.562 56.144 214.954 56.144ZM214.954 42.272C214.234 42.272 213.658 42.088 213.226 41.72C212.81 41.336 212.602 40.832 212.602 40.208C212.602 39.584 212.81 39.088 213.226 38.72C213.658 38.352 214.234 38.168 214.954 38.168C215.658 38.168 216.226 38.352 216.658 38.72C217.09 39.088 217.306 39.584 217.306 40.208C217.306 40.832 217.09 41.336 216.658 41.72C216.242 42.088 215.674 42.272 214.954 42.272ZM227.512 43.904C228.92 43.904 229.968 44.328 230.656 45.176C231.344 46.008 231.688 47.28 231.688 48.992V54.176C231.688 54.784 231.496 55.264 231.112 55.616C230.728 55.968 230.208 56.144 229.552 56.144C228.896 56.144 228.376 55.968 227.992 55.616C227.608 55.264 227.416 54.784 227.416 54.176V49.184C227.416 48.48 227.288 47.968 227.032 47.648C226.792 47.328 226.424 47.168 225.928 47.168C225.288 47.168 224.776 47.376 224.392 47.792C224.024 48.192 223.84 48.736 223.84 49.424V54.176C223.84 54.784 223.648 55.264 223.264 55.616C222.88 55.968 222.36 56.144 221.704 56.144C221.048 56.144 220.528 55.968 220.144 55.616C219.76 55.264 219.568 54.784 219.568 54.176V45.872C219.568 45.312 219.768 44.856 220.168 44.504C220.568 44.136 221.088 43.952 221.728 43.952C222.336 43.952 222.816 44.12 223.168 44.456C223.536 44.792 223.72 45.232 223.72 45.776C224.136 45.168 224.672 44.704 225.328 44.384C225.984 44.064 226.712 43.904 227.512 43.904ZM242.044 43.904C243.452 43.904 244.5 44.328 245.188 45.176C245.876 46.008 246.22 47.28 246.22 48.992V54.176C246.22 54.784 246.028 55.264 245.644 55.616C245.26 55.968 244.74 56.144 244.084 56.144C243.428 56.144 242.908 55.968 242.524 55.616C242.14 55.264 241.948 54.784 241.948 54.176V49.184C241.948 48.48 241.82 47.968 241.564 47.648C241.324 47.328 240.956 47.168 240.46 47.168C239.82 47.168 239.308 47.376 238.924 47.792C238.556 48.192 238.372 48.736 238.372 49.424V54.176C238.372 54.784 238.18 55.264 237.796 55.616C237.412 55.968 236.892 56.144 236.236 56.144C235.58 56.144 235.06 55.968 234.676 55.616C234.292 55.264 234.1 54.784 234.1 54.176V45.872C234.1 45.312 234.3 44.856 234.7 44.504C235.1 44.136 235.62 43.952 236.26 43.952C236.868 43.952 237.348 44.12 237.7 44.456C238.068 44.792 238.252 45.232 238.252 45.776C238.668 45.168 239.204 44.704 239.86 44.384C240.516 44.064 241.244 43.904 242.044 43.904ZM256.527 45.152C256.703 44.752 256.943 44.456 257.247 44.264C257.551 44.072 257.887 43.976 258.255 43.976C258.783 43.976 259.255 44.152 259.671 44.504C260.087 44.856 260.295 45.28 260.295 45.776C260.295 46.048 260.231 46.312 260.103 46.568L253.743 59.312C253.551 59.712 253.295 60.008 252.975 60.2C252.671 60.392 252.335 60.488 251.967 60.488C251.439 60.488 250.967 60.312 250.551 59.96C250.151 59.624 249.951 59.208 249.951 58.712C249.951 58.44 250.023 58.16 250.167 57.872L251.727 54.728L247.647 46.568C247.519 46.28 247.455 46.024 247.455 45.8C247.455 45.288 247.679 44.856 248.127 44.504C248.575 44.136 249.079 43.952 249.639 43.952C250.023 43.952 250.375 44.056 250.695 44.264C251.031 44.456 251.287 44.752 251.463 45.152L254.007 50.672L256.527 45.152ZM118.467 89.216C116.739 89.216 115.235 88.864 113.955 88.16C112.691 87.44 111.715 86.432 111.027 85.136C110.339 83.824 109.995 82.288 109.995 80.528C109.995 78.768 110.339 77.24 111.027 75.944C111.715 74.632 112.691 73.624 113.955 72.92C115.235 72.216 116.739 71.864 118.467 71.864C120.195 71.864 121.691 72.216 122.955 72.92C124.235 73.624 125.211 74.632 125.883 75.944C126.571 77.24 126.915 78.768 126.915 80.528C126.915 82.288 126.571 83.824 125.883 85.136C125.195 86.432 124.211 87.44 122.931 88.16C121.667 88.864 120.179 89.216 118.467 89.216ZM118.467 85.832C119.747 85.832 120.747 85.384 121.467 84.488C122.187 83.576 122.547 82.256 122.547 80.528C122.547 78.8 122.179 77.488 121.443 76.592C120.723 75.696 119.731 75.248 118.467 75.248C117.187 75.248 116.187 75.696 115.467 76.592C114.747 77.472 114.387 78.784 114.387 80.528C114.387 82.272 114.747 83.592 115.467 84.488C116.187 85.384 117.187 85.832 118.467 85.832ZM139.728 76.952C140.368 76.952 140.88 77.136 141.264 77.504C141.648 77.856 141.84 78.328 141.84 78.92V87.56C141.84 89.512 141.248 90.992 140.064 92C138.896 93.008 137.176 93.512 134.904 93.512C134.024 93.512 133.192 93.432 132.408 93.272C131.624 93.112 130.96 92.88 130.416 92.576C130.128 92.416 129.896 92.208 129.72 91.952C129.56 91.696 129.48 91.408 129.48 91.088C129.48 90.624 129.592 90.248 129.816 89.96C130.056 89.672 130.36 89.528 130.728 89.528C131.016 89.528 131.536 89.648 132.288 89.888C132.784 90.048 133.224 90.168 133.608 90.248C133.992 90.344 134.384 90.392 134.784 90.392C135.76 90.392 136.472 90.184 136.92 89.768C137.384 89.368 137.616 88.728 137.616 87.848V86.936C137.264 87.464 136.76 87.888 136.104 88.208C135.448 88.512 134.736 88.664 133.968 88.664C132.944 88.664 132.032 88.424 131.232 87.944C130.432 87.464 129.808 86.784 129.36 85.904C128.912 85.008 128.688 83.976 128.688 82.808C128.688 81.64 128.912 80.608 129.36 79.712C129.808 78.816 130.432 78.128 131.232 77.648C132.032 77.152 132.944 76.904 133.968 76.904C134.752 76.904 135.472 77.064 136.128 77.384C136.784 77.704 137.288 78.144 137.64 78.704C137.672 78.16 137.872 77.736 138.24 77.432C138.624 77.112 139.12 76.952 139.728 76.952ZM135.264 85.472C136.016 85.472 136.6 85.24 137.016 84.776C137.432 84.312 137.64 83.656 137.64 82.808C137.64 81.96 137.432 81.296 137.016 80.816C136.6 80.336 136.016 80.096 135.264 80.096C134.528 80.096 133.952 80.336 133.536 80.816C133.12 81.28 132.912 81.944 132.912 82.808C132.912 83.64 133.12 84.296 133.536 84.776C133.968 85.24 134.544 85.472 135.264 85.472ZM151.822 76.952C152.366 76.904 152.798 77.032 153.118 77.336C153.438 77.624 153.598 78.056 153.598 78.632C153.598 79.272 153.446 79.736 153.142 80.024C152.854 80.312 152.326 80.496 151.558 80.576L150.838 80.648C150.038 80.744 149.462 81 149.11 81.416C148.774 81.816 148.606 82.368 148.606 83.072V87.176C148.606 87.832 148.398 88.328 147.982 88.664C147.582 88.984 147.078 89.144 146.47 89.144C145.862 89.144 145.35 88.984 144.934 88.664C144.534 88.328 144.334 87.832 144.334 87.176V78.872C144.334 78.264 144.534 77.792 144.934 77.456C145.35 77.12 145.846 76.952 146.422 76.952C147.014 76.952 147.486 77.112 147.838 77.432C148.206 77.752 148.39 78.2 148.39 78.776V79.232C148.646 78.528 149.062 77.984 149.638 77.6C150.23 77.216 150.846 77.008 151.486 76.976L151.822 76.952ZM160.106 89.192C158.81 89.192 157.666 88.944 156.674 88.448C155.698 87.936 154.938 87.216 154.394 86.288C153.866 85.36 153.602 84.272 153.602 83.024C153.602 81.776 153.866 80.696 154.394 79.784C154.938 78.856 155.698 78.144 156.674 77.648C157.65 77.152 158.794 76.904 160.106 76.904C161.418 76.904 162.562 77.152 163.538 77.648C164.514 78.144 165.266 78.856 165.794 79.784C166.338 80.696 166.61 81.776 166.61 83.024C166.61 84.272 166.338 85.36 165.794 86.288C165.266 87.216 164.514 87.936 163.538 88.448C162.562 88.944 161.418 89.192 160.106 89.192ZM160.106 86C161.626 86 162.386 85.008 162.386 83.024C162.386 81.04 161.626 80.048 160.106 80.048C158.586 80.048 157.826 81.04 157.826 83.024C157.826 85.008 158.586 86 160.106 86ZM160.922 75.536C160.698 75.696 160.458 75.776 160.202 75.776C159.898 75.776 159.642 75.672 159.434 75.464C159.226 75.256 159.122 75.016 159.122 74.744C159.122 74.488 159.21 74.248 159.386 74.024L161.162 71.576C161.386 71.272 161.634 71.048 161.906 70.904C162.194 70.744 162.482 70.664 162.77 70.664C163.234 70.664 163.642 70.832 163.994 71.168C164.346 71.488 164.522 71.872 164.522 72.32C164.522 72.88 164.226 73.36 163.634 73.76L160.922 75.536ZM178.865 71.96C179.505 71.96 180.025 72.144 180.425 72.512C180.841 72.864 181.049 73.32 181.049 73.88V87.176C181.049 87.784 180.857 88.264 180.473 88.616C180.089 88.968 179.577 89.144 178.937 89.144C178.345 89.144 177.857 88.992 177.473 88.688C177.105 88.368 176.897 87.936 176.849 87.392C176.513 87.952 176.017 88.392 175.361 88.712C174.721 89.032 174.009 89.192 173.225 89.192C172.217 89.192 171.313 88.936 170.513 88.424C169.729 87.896 169.113 87.16 168.665 86.216C168.217 85.272 167.993 84.192 167.993 82.976C167.993 81.76 168.209 80.696 168.641 79.784C169.089 78.856 169.705 78.144 170.489 77.648C171.289 77.152 172.201 76.904 173.225 76.904C173.977 76.904 174.665 77.056 175.289 77.36C175.929 77.664 176.425 78.072 176.777 78.584V73.808C176.777 73.248 176.961 72.8 177.329 72.464C177.713 72.128 178.225 71.96 178.865 71.96ZM174.521 86C175.273 86 175.849 85.744 176.249 85.232C176.649 84.72 176.849 83.984 176.849 83.024C176.849 82.08 176.649 81.36 176.249 80.864C175.849 80.352 175.273 80.096 174.521 80.096C173.785 80.096 173.217 80.344 172.817 80.84C172.417 81.336 172.217 82.048 172.217 82.976C172.217 83.936 172.417 84.68 172.817 85.208C173.233 85.736 173.801 86 174.521 86ZM192.74 89C192.084 89 191.58 88.824 191.228 88.472C190.876 88.12 190.7 87.616 190.7 86.96V74.12C190.7 73.464 190.876 72.96 191.228 72.608C191.58 72.256 192.084 72.08 192.74 72.08H197.588C199.46 72.08 201.068 72.424 202.412 73.112C203.772 73.784 204.812 74.752 205.532 76.016C206.252 77.28 206.612 78.784 206.612 80.528C206.612 82.288 206.252 83.808 205.532 85.088C204.828 86.352 203.796 87.32 202.436 87.992C201.092 88.664 199.476 89 197.588 89H192.74ZM197.276 85.448C198.924 85.448 200.156 85.048 200.972 84.248C201.804 83.432 202.22 82.192 202.22 80.528C202.22 78.864 201.804 77.632 200.972 76.832C200.156 76.032 198.924 75.632 197.276 75.632H195.116V85.448H197.276ZM217.927 85.856C219.207 85.856 219.847 86.376 219.847 87.416C219.847 88.472 219.207 89 217.927 89H210.367C209.807 89 209.351 88.824 208.999 88.472C208.647 88.12 208.471 87.696 208.471 87.2C208.471 86.672 208.671 86.184 209.071 85.736L214.111 80.336H210.247C208.967 80.336 208.327 79.808 208.327 78.752C208.327 77.712 208.967 77.192 210.247 77.192H217.519C218.079 77.192 218.535 77.368 218.887 77.72C219.239 78.072 219.415 78.496 219.415 78.992C219.415 79.504 219.215 79.984 218.815 80.432L213.751 85.856H217.927ZM223.556 89.144C222.948 89.144 222.436 88.984 222.02 88.664C221.62 88.328 221.42 87.832 221.42 87.176V78.92C221.42 78.264 221.62 77.776 222.02 77.456C222.436 77.12 222.948 76.952 223.556 76.952C224.164 76.952 224.668 77.12 225.068 77.456C225.484 77.776 225.692 78.264 225.692 78.92V87.176C225.692 87.832 225.484 88.328 225.068 88.664C224.668 88.984 224.164 89.144 223.556 89.144ZM223.556 75.272C222.836 75.272 222.26 75.088 221.828 74.72C221.412 74.336 221.204 73.832 221.204 73.208C221.204 72.584 221.412 72.088 221.828 71.72C222.26 71.352 222.836 71.168 223.556 71.168C224.26 71.168 224.828 71.352 225.26 71.72C225.692 72.088 225.908 72.584 225.908 73.208C225.908 73.832 225.692 74.336 225.26 74.72C224.844 75.088 224.276 75.272 223.556 75.272ZM233.666 76.904C235.49 76.904 236.834 77.344 237.698 78.224C238.578 79.088 239.018 80.408 239.018 82.184V87.2C239.018 87.808 238.834 88.288 238.466 88.64C238.114 88.976 237.618 89.144 236.978 89.144C236.418 89.144 235.954 88.984 235.586 88.664C235.234 88.344 235.042 87.912 235.01 87.368C234.786 87.944 234.41 88.392 233.882 88.712C233.354 89.032 232.722 89.192 231.986 89.192C231.17 89.192 230.434 89.032 229.778 88.712C229.122 88.376 228.602 87.92 228.218 87.344C227.85 86.752 227.666 86.088 227.666 85.352C227.666 84.504 227.882 83.832 228.314 83.336C228.762 82.824 229.466 82.456 230.426 82.232C231.386 82.008 232.682 81.896 234.314 81.896H234.962V81.608C234.962 81.048 234.834 80.648 234.578 80.408C234.322 80.152 233.89 80.024 233.282 80.024C232.626 80.024 231.666 80.248 230.402 80.696C230.034 80.824 229.722 80.888 229.466 80.888C229.066 80.888 228.746 80.744 228.506 80.456C228.266 80.168 228.146 79.792 228.146 79.328C228.146 78.976 228.218 78.688 228.362 78.464C228.506 78.24 228.738 78.04 229.058 77.864C229.618 77.576 230.322 77.344 231.17 77.168C232.018 76.992 232.85 76.904 233.666 76.904ZM232.994 86.336C233.57 86.336 234.042 86.136 234.41 85.736C234.778 85.32 234.962 84.792 234.962 84.152V83.864H234.578C233.554 83.864 232.826 83.96 232.394 84.152C231.962 84.328 231.746 84.632 231.746 85.064C231.746 85.432 231.858 85.736 232.082 85.976C232.322 86.216 232.626 86.336 232.994 86.336ZM246.836 77.432C247.092 77.304 247.372 77.24 247.676 77.24C248.108 77.24 248.468 77.4 248.756 77.72C249.06 78.024 249.212 78.384 249.212 78.8C249.212 79.088 249.132 79.368 248.972 79.64C248.812 79.912 248.572 80.136 248.252 80.312L246.836 81.128V87.176C246.836 87.832 246.628 88.328 246.212 88.664C245.812 88.984 245.308 89.144 244.7 89.144C244.092 89.144 243.58 88.984 243.164 88.664C242.764 88.328 242.564 87.832 242.564 87.176V83.6C242.308 83.728 242.028 83.792 241.724 83.792C241.276 83.792 240.9 83.64 240.596 83.336C240.308 83.016 240.164 82.64 240.164 82.208C240.164 81.92 240.244 81.648 240.404 81.392C240.564 81.12 240.812 80.888 241.148 80.696L242.564 79.88V73.952C242.564 73.296 242.764 72.8 243.164 72.464C243.58 72.128 244.092 71.96 244.7 71.96C245.308 71.96 245.812 72.128 246.212 72.464C246.628 72.8 246.836 73.296 246.836 73.952V77.432ZM262.266 85.688C262.682 86.088 262.89 86.552 262.89 87.08C262.89 87.608 262.698 88.08 262.314 88.496C261.946 88.912 261.498 89.12 260.97 89.12C260.522 89.12 260.074 88.92 259.626 88.52L254.754 83.888V87.128C254.754 87.784 254.546 88.28 254.13 88.616C253.73 88.952 253.226 89.12 252.618 89.12C252.01 89.12 251.498 88.952 251.082 88.616C250.682 88.28 250.482 87.784 250.482 87.128V73.952C250.482 73.296 250.682 72.8 251.082 72.464C251.498 72.128 252.01 71.96 252.618 71.96C253.226 71.96 253.73 72.128 254.13 72.464C254.546 72.8 254.754 73.296 254.754 73.952V82.088L259.194 77.576C259.594 77.16 260.058 76.952 260.586 76.952C261.098 76.952 261.546 77.152 261.93 77.552C262.33 77.936 262.53 78.376 262.53 78.872C262.53 79.368 262.322 79.824 261.906 80.24L259.29 82.832L262.266 85.688ZM270.263 89.192C268.967 89.192 267.823 88.944 266.831 88.448C265.855 87.936 265.095 87.216 264.551 86.288C264.023 85.36 263.759 84.272 263.759 83.024C263.759 81.776 264.023 80.696 264.551 79.784C265.095 78.856 265.855 78.144 266.831 77.648C267.807 77.152 268.951 76.904 270.263 76.904C271.575 76.904 272.719 77.152 273.695 77.648C274.671 78.144 275.423 78.856 275.951 79.784C276.495 80.696 276.767 81.776 276.767 83.024C276.767 84.272 276.495 85.36 275.951 86.288C275.423 87.216 274.671 87.936 273.695 88.448C272.719 88.944 271.575 89.192 270.263 89.192ZM270.263 86C271.783 86 272.543 85.008 272.543 83.024C272.543 81.04 271.783 80.048 270.263 80.048C268.743 80.048 267.983 81.04 267.983 83.024C267.983 85.008 268.743 86 270.263 86ZM294.211 78.152C294.371 77.752 294.595 77.456 294.883 77.264C295.187 77.056 295.515 76.952 295.867 76.952C296.395 76.952 296.867 77.136 297.283 77.504C297.699 77.856 297.907 78.288 297.907 78.8C297.907 79.04 297.843 79.304 297.715 79.592L293.827 87.92C293.651 88.32 293.379 88.632 293.011 88.856C292.659 89.064 292.267 89.168 291.835 89.168C291.403 89.168 291.011 89.064 290.659 88.856C290.307 88.632 290.043 88.32 289.867 87.92L287.587 82.856L285.451 87.92C285.291 88.32 285.027 88.632 284.659 88.856C284.307 89.064 283.915 89.168 283.483 89.168C283.051 89.168 282.651 89.064 282.283 88.856C281.931 88.632 281.659 88.32 281.467 87.92L277.603 79.592C277.491 79.352 277.435 79.096 277.435 78.824C277.435 78.296 277.651 77.856 278.083 77.504C278.531 77.136 279.027 76.952 279.571 76.952C279.955 76.952 280.299 77.056 280.603 77.264C280.923 77.456 281.163 77.76 281.323 78.176L283.603 83.72L285.931 78.2C286.091 77.8 286.339 77.496 286.675 77.288C287.011 77.08 287.371 76.976 287.755 76.976C288.139 76.976 288.499 77.08 288.835 77.288C289.171 77.496 289.419 77.8 289.579 78.2L291.979 83.744L294.211 78.152ZM307.269 78.152C307.445 77.752 307.685 77.456 307.989 77.264C308.293 77.072 308.629 76.976 308.997 76.976C309.525 76.976 309.997 77.152 310.413 77.504C310.829 77.856 311.037 78.28 311.037 78.776C311.037 79.048 310.973 79.312 310.845 79.568L304.485 92.312C304.293 92.712 304.037 93.008 303.717 93.2C303.413 93.392 303.077 93.488 302.709 93.488C302.181 93.488 301.709 93.312 301.293 92.96C300.893 92.624 300.693 92.208 300.693 91.712C300.693 91.44 300.765 91.16 300.909 90.872L302.469 87.728L298.389 79.568C298.261 79.28 298.197 79.024 298.197 78.8C298.197 78.288 298.421 77.856 298.869 77.504C299.317 77.136 299.821 76.952 300.381 76.952C300.765 76.952 301.117 77.056 301.437 77.264C301.773 77.456 302.029 77.752 302.205 78.152L304.749 83.672L307.269 78.152Z" fill="#B3BE9D" fill-opacity="0.9"/>
<defs>
<filter id="filter0_d" x="21.9324" y="55.186" width="61.5908" height="48.3809" filterUnits="userSpaceOnUse" color-interpolation-filters="sRGB">
<feFlood flood-opacity="0" result="BackgroundImageFix"/>
<feColorMatrix in="SourceAlpha" type="matrix" values="0 0 0 0 0 0 0 0 0 0 0 0 0 0 0 0 0 0 127 0"/>
<feOffset dy="1.02941"/>
<feGaussianBlur stdDeviation="0.514706"/>
<feColorMatrix type="matrix" values="0 0 0 0 0.10026 0 0 0 0 0.0783716 0 0 0 0 0.0783716 0 0 0 0.25 0"/>
<feBlend mode="normal" in2="BackgroundImageFix" result="effect1_dropShadow"/>
<feBlend mode="normal" in="SourceGraphic" in2="effect1_dropShadow" result="shape"/>
</filter>
</defs>
</svg>
